<?xml version="1.0" encoding="UTF-8"?>
<svg width="197px" height="48px" viewBox="0 0 197 48" version="1.1" xmlns="http://www.w3.org/2000/svg" xmlns:xlink="http://www.w3.org/1999/xlink">
    <!-- Generator: Sketch 44.1 (41455) - http://www.bohemiancoding.com/sketch -->
    <title>Quant (Avenegance font)</title>
    <desc>Created with Sketch.</desc>
    <defs></defs>
    <g id="Color-choice" stroke="none" stroke-width="1" fill="none" fill-rule="evenodd">
        <g id="Desktop-HD" transform="translate(-165.000000, -110.000000)" fill="#373A3C">
            <g id="Main-section">
                <path d="M200.771328,145.161446 C202.043617,147.06988 203.720726,150.250602 204.877352,152.563855 C201.870123,154.414458 197.474943,156.785542 193.831569,158 C193.368919,156.438554 192.038798,153.084337 191.055665,151.118072 C187.643617,152.506024 183.653256,153.373494 179.952051,153.315663 C169.715906,153.142169 163.990605,145.392771 165.147232,134.983133 C167.286991,118.26988 180.299039,110.173494 192.096629,110 C201.870123,110.578313 207.421931,115.66747 208.000244,123.763855 C208.578557,131.571084 206.09181,139.840964 200.771328,145.161446 Z M188.684581,123.53253 C183.248437,123.590361 178.101449,128.043373 176.655665,133.653012 C174.978557,140.766265 179.836388,145.277108 186.602653,143.021687 C185.272533,141.055422 183.82675,139.204819 182.149641,137.354217 C185.15687,135.792771 186.02434,135.156627 189.320726,133.710843 C190.882172,135.098795 192.443617,136.428916 193.831569,137.816867 C194.814702,136.60241 195.450846,135.214458 195.797834,133.653012 C197.185786,128.159036 194.005063,123.53253 188.684581,123.53253 Z M231.595425,112.19759 C228.935184,120.178313 225.060485,132.554217 223.267714,140.592771 C222.573738,143.773494 224.886991,143.889157 226.564099,143.889157 C229.802653,143.773494 231.248437,143.079518 232.347232,139.783133 C234.949641,132.149398 238.188196,119.484337 239.807473,111.503614 C244.780967,111.098795 248.366509,111.156627 252.414702,111.561446 C250.15928,120.004819 247.325545,131.513253 244.433979,140.361446 C240.617111,152.390361 234.89181,153.951807 223.96169,153.951807 C220.202653,153.951807 217.195425,153.2 215.113497,151.927711 C210.313497,148.804819 211.643617,142.848193 212.684581,137.816867 C214.650846,128.968675 218.005063,118.559036 219.913497,112.313253 C224.193015,111.908434 228.35687,111.908434 231.595425,112.19759 Z M256.462894,152.621687 C252.819521,152.33253 249.29181,152.33253 246.053256,152.621687 C252.125545,139.262651 258.602653,124.804819 265.484581,111.503614 C270.978557,110.636145 275.836388,110.636145 280.925545,110.809639 C281.041208,124.862651 281.388196,139.436145 280.752051,152.968675 C277.282172,152.853012 273.407473,152.737349 269.937593,153.142169 C270.111087,150.771084 270.168919,148.226506 270.22675,145.79759 C266.930364,145.913253 263.807473,145.913253 259.874943,146.20241 C258.776147,148.284337 257.735184,150.481928 256.462894,152.621687 Z M263.171328,135.908434 C266.120726,135.792771 268.780967,135.73494 271.903858,136.024096 C271.96169,131.224096 271.672533,125.903614 271.383376,120.987952 C268.433979,125.845783 265.773738,131.108434 263.171328,135.908434 Z M294.747232,112.313253 C290.641208,125.498795 287.113497,140.303614 284.337593,153.142169 C288.096629,152.910843 291.046027,152.853012 294.920726,152.968675 C296.540003,146.375904 298.217111,139.898795 300.414702,132.901205 C301.050846,139.551807 302.033979,147.995181 302.496629,153.257831 C306.429159,152.737349 311.518316,152.448193 315.508678,152.621687 C318.978557,139.031325 323.258075,124.746988 328.173738,110.983133 C324.35687,110.520482 319.152051,110.809639 315.740003,111.33012 C313.368919,118.963855 311.113497,126.771084 309.49422,134.346988 C308.973738,127.985542 308.048437,118.26988 307.817111,111.792771 C303.479762,111.677108 299.778557,111.677108 294.747232,112.313253 Z M331.238798,111.503614 C329.677352,115.378313 328.809882,119.426506 328.173738,123.243373 C331.065304,123.127711 334.419521,122.896386 337.311087,123.06988 C334.708678,132.901205 332.395425,143.889157 330.02434,152.968675 C333.49422,152.679518 337.600244,152.563855 341.070123,152.853012 C343.614702,143.426506 347.02675,132.496386 349.744822,123.012048 C352.867714,122.838554 355.990605,122.954217 358.708678,123.06988 C359.518316,119.195181 360.732774,115.146988 361.947232,111.040964 C351.768919,110.462651 340.549641,110.751807 331.238798,111.503614 Z" id="Quant-(Avenegance-font)"></path>
            </g>
        </g>
    </g>
</svg>