<svg xmlns="http://www.w3.org/2000/svg" xmlns:xlink="http://www.w3.org/1999/xlink" version="1.1" x="0px" y="0px" viewBox="0 0 100 125" style="enable-background:new 0 0 100 100;" xml:space="preserve"><g><path d="M86,8H14c-3.3,0-6,2.7-6,6v72c0,3.3,2.7,6,6,6h72c3.3,0,6-2.7,6-6V14C92,10.7,89.3,8,86,8z M88,14v34H52V12h34   C87.1,12,88,12.9,88,14z M14,12h34v36H12V14C12,12.9,12.9,12,14,12z M12,86V52h36v36H14C12.9,88,12,87.1,12,86z M86,88H52V52h36v34   C88,87.1,87.1,88,86,88z"/><polygon points="39.7,66 31.7,66 31.7,58 27.7,58 27.7,66 19.7,66 19.7,70 27.7,70 27.7,78 31.7,78 31.7,70 39.7,70  "/><rect x="19.7" y="28.7" width="20" height="4"/><rect x="59.4" y="73" width="20" height="4"/><rect x="59.4" y="62" width="20" height="4"/><polygon points="60.9,36.3 63.7,39.2 69.4,33.5 75,39.2 77.8,36.3 72.2,30.7 77.8,25 75,22.2 69.4,27.8 63.7,22.2 60.9,25    66.5,30.7  "/></g></svg>