<svg xmlns="http://www.w3.org/2000/svg" width="70" height="70" viewBox="0 0 70 70" style="width: 100%; height: 100%;">
  <desc>Made with illustrio</desc>

  <g class="content">
    <circle cx="50%" cy="50%" r="27px" class="main-fill">
    </circle>
    <g class="base">
      <g fill="none" fill-rule="evenodd" stroke="none" class="secondary-fill">
      </g>
      <g fill="none" transform="translate(17.818 19.09)" stroke="none" class="secondary-fill">
        <path d="M33.7272727 30.5454545L.636363636 30.5454545C.285090909 30.5454545 0 30.8299091 0 31.1818182 0 31.5337273.285090909 31.8181818.636363636 31.8181818L33.7272727 31.8181818C34.0791818 31.8181818 34.3636364 31.5337273 34.3636364 31.1818182 34.3636364 30.8299091 34.0791818 30.5454545 33.7272727 30.5454545L33.7272727 30.5454545zM.636363636 29.2727273L3.18181818 29.2727273C3.53309091 29.2727273 3.81818182 28.9882727 3.81818182 28.6363636L3.81818182 21C3.81818182 20.6480909 3.53309091 20.3636364 3.18181818 20.3636364L.636363636 20.3636364C.285090909 20.3636364 0 20.6480909 0 21L0 28.6363636C0 28.9882727.285090909 29.2727273.636363636 29.2727273L.636363636 29.2727273zM5.72727273 29.2727273L8.27272727 29.2727273C8.624 29.2727273 8.90909091 28.9882727 8.90909091 28.6363636L8.90909091 19.7272727C8.90909091 19.3753636 8.624 19.0909091 8.27272727 19.0909091L5.72727273 19.0909091C5.376 19.0909091 5.09090909 19.3753636 5.09090909 19.7272727L5.09090909 28.6363636C5.09090909 28.9882727 5.376 29.2727273 5.72727273 29.2727273L5.72727273 29.2727273zM10.8181818 29.2727273L13.3636364 29.2727273C13.7149091 29.2727273 14 28.9882727 14 28.6363636L14 21C14 20.6480909 13.7149091 20.3636364 13.3636364 20.3636364L10.8181818 20.3636364C10.4669091 20.3636364 10.1818182 20.6480909 10.1818182 21L10.1818182 28.6363636C10.1818182 28.9882727 10.4669091 29.2727273 10.8181818 29.2727273L10.8181818 29.2727273zM15.9090909 29.2727273L18.4545455 29.2727273C18.8064545 29.2727273 19.0909091 28.9882727 19.0909091 28.6363636L19.0909091 17.1818182C19.0909091 16.8299091 18.8064545 16.5454545 18.4545455 16.5454545L15.9090909 16.5454545C15.5578182 16.5454545 15.2727273 16.8299091 15.2727273 17.1818182L15.2727273 28.6363636C15.2727273 28.9882727 15.5578182 29.2727273 15.9090909 29.2727273L15.9090909 29.2727273zM21 29.2727273L23.5454545 29.2727273C23.8973636 29.2727273 24.1818182 28.9882727 24.1818182 28.6363636L24.1818182 12.0909091C24.1818182 11.7396364 23.8973636 11.4545455 23.5454545 11.4545455L21 11.4545455C20.6480909 11.4545455 20.3636364 11.7396364 20.3636364 12.0909091L20.3636364 28.6363636C20.3636364 28.9882727 20.6480909 29.2727273 21 29.2727273L21 29.2727273zM26.0909091 29.2727273L28.6363636 29.2727273C28.9882727 29.2727273 29.2727273 28.9882727 29.2727273 28.6363636L29.2727273 7C29.2727273 6.64872727 28.9882727 6.36363636 28.6363636 6.36363636L26.0909091 6.36363636C25.739 6.36363636 25.4545455 6.64872727 25.4545455 7L25.4545455 28.6363636C25.4545455 28.9882727 25.739 29.2727273 26.0909091 29.2727273L26.0909091 29.2727273zM33.7272727 0L31.1818182 0C30.8299091 0 30.5454545.285090909 30.5454545.636363636L30.5454545 28.6363636C30.5454545 28.9882727 30.8299091 29.2727273 31.1818182 29.2727273L33.7272727 29.2727273C34.0791818 29.2727273 34.3636364 28.9882727 34.3636364 28.6363636L34.3636364.636363636C34.3636364.285090909 34.0791818 0 33.7272727 0L33.7272727 0z" fill="none" stroke="none" class="secondary-fill"></path>
      </g>
    </g>
  </g>
  <style>
    .main-fill {fill: #F5D674;}
    .secondary-fill {fill: #333;}
  </style>
</svg>