<svg xmlns:dc="http://purl.org/dc/elements/1.1/" xmlns:cc="http://creativecommons.org/ns#" xmlns:rdf="http://www.w3.org/1999/02/22-rdf-syntax-ns#" xmlns:svg="http://www.w3.org/2000/svg" xmlns="http://www.w3.org/2000/svg" xmlns:sodipodi="http://sodipodi.sourceforge.net/DTD/sodipodi-0.dtd" xmlns:inkscape="http://www.inkscape.org/namespaces/inkscape" version="1.1" x="0px" y="0px" viewBox="0 0 100 125"><g transform="translate(0,-952.36218)"><path style="font-size:medium;font-style:normal;font-variant:normal;font-weight:normal;font-stretch:normal;text-indent:0;text-align:start;text-decoration:none;line-height:normal;letter-spacing:normal;word-spacing:normal;text-transform:none;direction:ltr;block-progression:tb;writing-mode:lr-tb;text-anchor:start;baseline-shift:baseline;opacity:1;color:#000000;fill:#000000;fill-opacity:1;stroke:none;stroke-width:6;marker:none;visibility:visible;display:inline;overflow:visible;enable-background:accumulate;font-family:Sans;-inkscape-font-specification:Sans" d="M 37.6875 5 A 3.0003 3.0003 0 0 0 35 8 L 35 37.1875 L 12.375 77.53125 C 11.015932 79.94485 10 82.3493 10 85 C 10 87.9715 11.387138 90.73675 13.625 92.46875 C 15.862862 94.20075 18.783687 95 22 95 L 78 95 C 81.216313 95 84.137138 94.20075 86.375 92.46875 C 88.612862 90.73675 90 87.9715 90 85 C 90 82.3493 88.984068 79.94485 87.625 77.53125 L 65 37.1875 L 65 8 A 3.0003 3.0003 0 0 0 62 5 L 38 5 A 3.0003 3.0003 0 0 0 37.6875 5 z M 41 11 L 59 11 L 59 38 A 3.0003 3.0003 0 0 0 59.375 39.46875 L 82.375 80.46875 C 83.487318 82.44415 84 84.0451 84 85 C 84 86.2966 83.593243 87.01775 82.6875 87.71875 C 81.781757 88.41975 80.209268 89 78 89 L 22 89 C 19.790732 89 18.218243 88.41975 17.3125 87.71875 C 16.406757 87.01775 16 86.2966 16 85 C 16 84.0451 16.512682 82.44415 17.625 80.46875 L 39.78125 41 L 48 41 A 3.0003 3.0003 0 1 0 48 35 L 41 35 L 41 31 L 46 31 A 3.0003 3.0003 0 1 0 46 25 L 41 25 L 41 21 L 48 21 A 3.0003 3.0003 0 1 0 48 15 L 41 15 L 41 11 z " transform="translate(0,952.36218)"/></g></svg>