<svg xmlns="http://www.w3.org/2000/svg" width="70" height="70" viewBox="0 0 70 70" style="width: 100%; height: 100%;">
  <desc>Made with illustrio</desc>

  <g class="content">
    <circle cx="50%" cy="50%" r="27px" class="main-fill"></circle>
    <g class="base">
      <g fill="none" fill-rule="evenodd" stroke="none" class="secondary-fill">

        <path fill="none" d="M2,14 C2,12.895 2.895,12 4,12 C5.105,12 6,12.895 6,14 C6,15.105 5.105,16 4,16 C2.895,16 2,15.105 2,14 Z M16,16 C17.105,16 18,15.105 18,14 C18,12.895 17.105,12 16,12 C14.895,12 14,12.895 14,14 C14,15.105 14.895,16 16,16 Z M28,16 C29.105,16 30,15.105 30,14 C30,12.895 29.105,12 28,12 C26.895,12 26,12.895 26,14 C26,15.105 26.895,16 28,16 Z M6,18 L2,18 C0.895,18 0,18.895 0,20 L0,24 C0,25.105 0.895,26 2,26 L2,30 C2,31.105 2.895,32 4,32 C5.105,32 6,31.105 6,30 L6,26 C7.105,26 8,25.105 8,24 L8,20 C8,18.895 7.105,18 6,18 Z M18,18 L14,18 C12.895,18 12,18.895 12,20 L12,24 C12,25.105 12.895,26 14,26 L14,30 C14,31.105 14.895,32 16,32 C17.105,32 18,31.105 18,30 L18,26 C19.105,26 20,25.105 20,24 L20,20 C20,18.895 19.105,18 18,18 Z M30,18 L26,18 C24.895,18 24,18.895 24,20 L24,24 C24,25.105 24.895,26 26,26 L26,30 C26,31.105 26.895,32 28,32 C29.105,32 30,31.105 30,30 L30,26 C31.105,26 32,25.105 32,24 L32,20 C32,18.895 31.105,18 30,18 Z M10,6 C8.895,6 8,6.895 8,8 C8,9.105 8.895,10 10,10 C11.105,10 12,9.105 12,8 C12,6.895 11.105,6 10,6 Z M22,6 C20.895,6 20,6.895 20,8 C20,9.105 20.895,10 22,10 C23.105,10 24,9.105 24,8 C24,6.895 23.105,6 22,6 Z M16,4 C17.105,4 18,3.105 18,2 C18,0.895 17.105,0 16,0 C14.895,0 14,0.895 14,2 C14,3.105 14.895,4 16,4 Z" transform="translate(19 19)" stroke="none" class="secondary-fill"></path>
      </g>
    </g>
  </g>
  <style>
    .main-fill {fill: #F5D674;}
    .secondary-fill {fill: #333;}
  </style>
</svg>