<svg xmlns="http://www.w3.org/2000/svg" xmlns:xlink="http://www.w3.org/1999/xlink" version="1.1" x="0px" y="0px" viewBox="0 0 100 125" enable-background="new 0 0 100 100" xml:space="preserve"><g><path fill="none" d="M82.274,8.636H27.729v70.909h54.546V8.636z M64.09,53.183H36.819c-1.004,0-1.815-0.816-1.815-1.819   c0-1.004,0.811-1.82,1.815-1.82H64.09c1.005,0,1.821,0.816,1.821,1.82C65.911,52.367,65.095,53.183,64.09,53.183z M73.183,44.091   H36.819c-1.004,0-1.815-0.814-1.815-1.817c0-1.004,0.811-1.82,1.815-1.82h36.364c1.003,0,1.817,0.816,1.817,1.82   C75,43.277,74.186,44.091,73.183,44.091z M73.183,35.001H36.819c-1.004,0-1.815-0.813-1.815-1.817s0.811-1.82,1.815-1.82h36.364   c1.003,0,1.817,0.816,1.817,1.82S74.186,35.001,73.183,35.001z"/><path fill="none" d="M21.484,79.545h0.126h2.481V8.638h-1.241c-2.918,0-5.123,2.36-5.123,5.49v66.469   C18.823,79.931,20.101,79.545,21.484,79.545z"/><path fill="none" d="M21.61,83.182c-0.037,0.003-0.086,0.009-0.135,0.015l-0.199,0.019c-1.447,0.135-2.671,1.17-3.287,2.78   l-0.247,1.022c-0.004,0.087-0.011,0.173-0.011,0.262c0,2.371,1.578,4.083,3.754,4.083h60.79v-8.182H25.91H21.61z M35.91,85.907   h33.636c1.002,0,1.818,0.816,1.818,1.82c0,1.004-0.816,1.82-1.818,1.82H35.91c-1.003,0-1.817-0.816-1.817-1.82   C34.093,86.723,34.907,85.907,35.91,85.907z"/><path d="M85.91,6.818C85.91,5.814,85.095,5,84.092,5H25.91c-0.004,0-0.008,0.001-0.012,0.001h-3.049   c-4.912,0-8.76,4.009-8.76,9.127v72.724c0,0.058,0.01,0.112,0.016,0.169c-0.003,0.09-0.013,0.177-0.013,0.268   c0,4.397,3.176,7.711,7.391,7.711h62.608c1.003,0,1.818-0.813,1.818-1.82V81.365c0-0.001,0-0.001,0-0.002c0,0,0-0.001,0-0.002   V6.818z M27.729,8.636h54.546v70.909H27.729V8.636z M22.849,8.638h1.241v70.907H21.61h-0.126c-1.383,0-2.661,0.385-3.757,1.052   V14.128C17.727,10.999,19.931,8.638,22.849,8.638z M82.274,91.364h-60.79c-2.176,0-3.754-1.712-3.754-4.083   c0-0.089,0.007-0.175,0.011-0.262l0.247-1.022c0.616-1.611,1.84-2.645,3.287-2.78l0.199-0.019c0.049-0.006,0.098-0.012,0.135-0.015   h4.3h56.364V91.364z"/><path d="M73.183,31.364H36.819c-1.004,0-1.815,0.816-1.815,1.82s0.811,1.817,1.815,1.817h36.364c1.003,0,1.817-0.813,1.817-1.817   S74.186,31.364,73.183,31.364z"/><path d="M73.183,40.454H36.819c-1.004,0-1.815,0.816-1.815,1.82c0,1.003,0.811,1.817,1.815,1.817h36.364   c1.003,0,1.817-0.814,1.817-1.817C75,41.27,74.186,40.454,73.183,40.454z"/><path d="M64.09,49.544H36.819c-1.004,0-1.815,0.816-1.815,1.82c0,1.003,0.811,1.819,1.815,1.819H64.09   c1.005,0,1.821-0.816,1.821-1.819C65.911,50.36,65.095,49.544,64.09,49.544z"/><path d="M35.91,89.546h33.636c1.002,0,1.818-0.816,1.818-1.82c0-1.004-0.816-1.82-1.818-1.82H35.91   c-1.003,0-1.817,0.816-1.817,1.82C34.093,88.73,34.907,89.546,35.91,89.546z"/></g><text x="0" y="115" fill="#000000" font-size="5px" font-weight="bold" font-family="'Helvetica Neue', Helvetica, Arial-Unicode, Arial, Sans-serif">Created by Valeriy</text><text x="0" y="120" fill="#000000" font-size="5px" font-weight="bold" font-family="'Helvetica Neue', Helvetica, Arial-Unicode, Arial, Sans-serif">from the Noun Project</text></svg>