<svg xmlns="http://www.w3.org/2000/svg" data-name="Layer 1" viewBox="0 0 100 125" x="0px" y="0px"><title>51 all</title><path d="M93.23,25.29c-3.13-5.37-10.76-7.46-21.49-5.88-1.41.21-2.86.48-4.33.8C63.56,8.15,57.32.6,50,.6S36.44,8.15,32.59,20.21c-1.48-.32-2.93-.6-4.34-.8-10.72-1.57-18.35.52-21.49,5.88C5.18,28,4.88,31.26,5.87,35c1.24,4.63,4.55,9.82,9.38,15-4.83,5.21-8.14,10.4-9.38,15-1,3.71-.69,7,.89,9.69,2.45,4.2,7.66,6.39,14.95,6.39a45.08,45.08,0,0,0,6.54-.51c1.41-.21,2.86-.48,4.34-.8C36.44,91.85,42.68,99.4,50,99.4s13.56-7.55,17.41-19.61c1.48.32,2.92.6,4.33.8a45.09,45.09,0,0,0,6.54.51c7.29,0,12.49-2.19,14.95-6.39,1.59-2.72,1.89-6,.89-9.69-1.24-4.63-4.54-9.82-9.38-15,4.83-5.21,8.14-10.4,9.38-15C95.12,31.26,94.82,28,93.23,25.29ZM50,6.6c4.13,0,8.53,5.64,11.59,15.13A99.89,99.89,0,0,0,50,26.07a99.9,99.9,0,0,0-11.59-4.34C41.47,12.24,45.87,6.6,50,6.6ZM65.54,50c0,3-.12,5.88-.33,8.64-2.36,1.6-4.85,3.15-7.43,4.63S52.54,66.12,50,67.33q-3.81-1.81-7.78-4.07c-2.58-1.47-5.07-3-7.43-4.63-.21-2.77-.33-5.65-.33-8.64s.12-5.88.33-8.64c2.36-1.6,4.85-3.15,7.43-4.63s5.24-2.86,7.78-4.07c2.54,1.21,5.14,2.56,7.78,4.07s5.07,3,7.43,4.63C65.42,44.12,65.54,47,65.54,50Zm5.93-4.07q2.55,2,4.8,4.07-2.24,2-4.8,4.07c0-1.34.07-2.69.07-4.07S71.51,47.27,71.47,45.93ZM64.33,66.35q-.5,3.24-1.17,6.16-2.89-.88-6-2.07c1.19-.63,2.38-1.28,3.57-2S63.16,67.07,64.33,66.35ZM42.81,70.43q-3.08,1.19-6,2.07-.67-2.91-1.17-6.15,1.76,1.08,3.58,2.13C40.43,69.15,41.62,69.8,42.81,70.43ZM28.54,54.07q-2.55-2-4.8-4.07,2.24-2,4.8-4.07c0,1.34-.07,2.69-.07,4.07S28.49,52.73,28.54,54.07Zm7.13-20.42q.5-3.23,1.17-6.15,2.89.88,6,2.07c-1.19.63-2.38,1.28-3.57,2S36.84,32.93,35.67,33.65Zm25.09-2.13c-1.19-.68-2.38-1.33-3.57-2q3.08-1.19,6-2.07.67,2.91,1.17,6.15Q62.58,32.56,60.76,31.52ZM11.95,28.31c1.33-2.28,4.77-3.48,9.67-3.48A45.18,45.18,0,0,1,31,26a96.23,96.23,0,0,0-2,12.08,99.4,99.4,0,0,0-9.57,7.74c-4.06-4.39-6.83-8.67-7.82-12.36A6.61,6.61,0,0,1,11.95,28.31Zm0,43.38a6.61,6.61,0,0,1-.28-5.11c1-3.7,3.76-8,7.82-12.36A99.4,99.4,0,0,0,29.05,62,96.22,96.22,0,0,0,31,74C21.16,76.17,14,75.23,11.95,71.69ZM50,93.4c-4.13,0-8.53-5.64-11.59-15.13A99.93,99.93,0,0,0,50,73.93a99.92,99.92,0,0,0,11.59,4.34C58.53,87.76,54.13,93.4,50,93.4ZM88.05,71.69C86,75.23,78.84,76.17,69,74a96.22,96.22,0,0,0,2-12.09,99.39,99.39,0,0,0,9.57-7.74c4.06,4.39,6.82,8.66,7.82,12.36A6.61,6.61,0,0,1,88.05,71.69Zm.28-38.27c-1,3.7-3.76,8-7.82,12.36A99.39,99.39,0,0,0,70.95,38,96.22,96.22,0,0,0,69,26a45.18,45.18,0,0,1,9.39-1.13c4.91,0,8.34,1.2,9.67,3.48A6.61,6.61,0,0,1,88.33,33.42Z"/><path d="M50,40.13A9.88,9.88,0,1,0,59.88,50,9.89,9.89,0,0,0,50,40.13Zm0,13.75A3.88,3.88,0,1,1,53.88,50,3.88,3.88,0,0,1,50,53.88Z"/><text x="0" y="115" fill="#000000" font-size="5px" font-weight="bold" font-family="'Helvetica Neue', Helvetica, Arial-Unicode, Arial, Sans-serif">Created by Prithvi</text><text x="0" y="120" fill="#000000" font-size="5px" font-weight="bold" font-family="'Helvetica Neue', Helvetica, Arial-Unicode, Arial, Sans-serif">from the Noun Project</text></svg>