<svg xmlns="http://www.w3.org/2000/svg" xmlns:xlink="http://www.w3.org/1999/xlink" version="1.1" x="0px" y="0px" viewBox="0 0 48 60" enable-background="new 0 0 48 48" xml:space="preserve"><g><path fill="#000000" d="M46.3,39.1L25.2,20.4c0-0.3,0.1-0.5,0.1-0.8c0-1.2-0.4-2.3-1.1-3.2c0.4-0.6,0.8-1.2,1.1-1.8   c0.5,0.3,1.1,0.5,1.7,0.5c0.8,0,1.6-0.3,2.1-0.9l0.2-0.2c0.6-0.6,0.9-1.3,0.9-2.1c0-0.8-0.3-1.6-0.9-2.1l-9-9   c-1.1-1.1-3.1-1.1-4.2,0l-0.2,0.2c-1,1-1.1,2.7-0.3,3.8c-2,1.1-4,2.6-5.8,4.4c-1.8,1.8-3.3,3.8-4.5,5.8c-1.2-0.8-2.8-0.7-3.8,0.3   l-0.2,0.2c-0.6,0.6-0.9,1.3-0.9,2.1s0.3,1.6,0.9,2.1l9,9c0.6,0.6,1.3,0.9,2.1,0.9c0.8,0,1.6-0.3,2.1-0.9l0.2-0.2   c0.6-0.6,0.9-1.3,0.9-2.1c0-0.6-0.2-1.2-0.5-1.7c0.6-0.3,1.2-0.7,1.8-1.1c0.9,0.7,2,1.1,3.2,1.1c0.3,0,0.5,0,0.8-0.1L39.4,46   c0.9,1,2.2,1.6,3.5,1.7c0,0,0.1,0,0.1,0c1.3,0,2.6-0.5,3.5-1.4c1-1,1.5-2.3,1.4-3.6C48,41.3,47.4,40,46.3,39.1z M17.3,2.5l0.2-0.2   C17.7,2.1,17.9,2,18.2,2s0.5,0.1,0.7,0.3l9,9c0.2,0.2,0.3,0.4,0.3,0.7c0,0.3-0.1,0.5-0.3,0.7l-0.2,0.2c-0.4,0.4-1,0.4-1.4,0l-9-9   C16.9,3.5,16.9,2.9,17.3,2.5z M11.1,10.8c1.8-1.8,3.8-3.3,5.8-4.4l3.4,3.4l3.4,3.4c-1,2-2.5,4-4.4,5.8c-1.8,1.8-3.8,3.3-5.9,4.4   L10.2,20l-3.4-3.4C7.8,14.6,9.3,12.6,11.1,10.8z M13.2,27.4L13,27.6c-0.4,0.4-1,0.4-1.4,0l-9-9c-0.2-0.2-0.3-0.4-0.3-0.7   c0-0.3,0.1-0.5,0.3-0.7l0.2-0.2c0.2-0.2,0.4-0.3,0.7-0.3c0.3,0,0.5,0.1,0.7,0.3l9,9c0.2,0.2,0.3,0.4,0.3,0.7   C13.5,26.9,13.4,27.2,13.2,27.4z M18.5,22.6c0.8-0.6,1.6-1.3,2.3-2.1c0.7-0.7,1.4-1.5,2.1-2.3c0.2,0.5,0.4,1,0.4,1.5   c0,0.9-0.3,1.7-1,2.3C21.3,23,19.7,23.2,18.5,22.6z M45.1,44.8c-0.6,0.6-1.3,0.9-2.1,0.8c-0.8,0-1.6-0.4-2.1-1L22.8,24.1   c0.3-0.2,0.7-0.5,1-0.7c0.3-0.3,0.5-0.6,0.7-1L45,40.6c0.6,0.5,1,1.3,1,2.1C46,43.5,45.7,44.2,45.1,44.8z"/><path fill="#000000" d="M22.4,39.5H4.1c-2.3,0-4.1,1.8-4.1,4.1V47c0,0.6,0.4,1,1,1h24.4c0.6,0,1-0.4,1-1v-3.4   C26.4,41.3,24.6,39.5,22.4,39.5z M24.4,46H2v-2.4c0-1.2,0.9-2.1,2.1-2.1h18.3c1.2,0,2.1,0.9,2.1,2.1V46z"/></g><text x="0" y="63" fill="#000000" font-size="5px" font-weight="bold" font-family="'Helvetica Neue', Helvetica, Arial-Unicode, Arial, Sans-serif">Created by Vectors Market</text><text x="0" y="68" fill="#000000" font-size="5px" font-weight="bold" font-family="'Helvetica Neue', Helvetica, Arial-Unicode, Arial, Sans-serif">from the Noun Project</text></svg>