<svg xmlns="http://www.w3.org/2000/svg" xmlns:xlink="http://www.w3.org/1999/xlink" version="1.2" baseProfile="tiny" x="0px" y="0px" viewBox="0 0 100 125" xml:space="preserve"><path d="M13.632,86.398c4.859,4.859,11.003,7.883,17.3,8.513c0.818,0.082,1.625,0.122,2.421,0.122  c5.518,0,10.466-1.947,14.122-5.604c3.255-3.257,5.169-7.562,5.536-12.449c0.283-3.765,2.937-6.994,6.762-8.227  c2.268-0.731,4.248-1.933,5.886-3.57c5.265-5.265,5.638-13.882,1.641-21.448l14.25-14.25l12.236-7.342  c0.66-0.396,1.101-1.074,1.195-1.838c0.094-0.765-0.169-1.529-0.714-2.073l-12.5-12.5c-0.544-0.545-1.31-0.81-2.073-0.714  c-0.764,0.094-1.442,0.535-1.838,1.195L70.515,18.45L56.27,32.695c-2.507-1.328-5.165-2.206-7.85-2.542  c-5.364-0.671-10.183,0.828-13.573,4.22c-1.638,1.638-2.839,3.617-3.57,5.886c-1.233,3.825-4.462,6.479-8.227,6.762  c-4.89,0.367-9.194,2.281-12.449,5.536C2.107,61.051,3.466,76.232,13.632,86.398z M80.497,11.532l7.972,7.972l-8.081,4.848  l-4.74-4.739L80.497,11.532z M72.5,23.535l3.964,3.965L55,48.965L51.036,45L72.5,23.535z M23.424,52.007  c5.801-0.435,10.751-4.444,12.611-10.214c0.485-1.506,1.275-2.813,2.346-3.885c1.973-1.973,4.669-2.924,7.614-2.924  c2.109,0,4.346,0.497,6.536,1.448l-6.8,6.8c-0.977,0.977-0.977,2.559,0,3.535l7.5,7.5C53.72,54.756,54.36,55,55,55  s1.28-0.244,1.768-0.732l6.813-6.813c2.3,5.261,1.938,10.798-1.457,14.193c-1.072,1.071-2.379,1.861-3.885,2.347  c-5.769,1.859-9.779,6.809-10.214,12.611c-0.275,3.679-1.688,6.89-4.085,9.288c-6.545,6.544-18.555,5.185-26.772-3.031  c-8.216-8.217-9.575-20.227-3.03-26.771C16.534,53.695,19.745,52.283,23.424,52.007z"/><path d="M40,67.5c4.136,0,7.5-3.364,7.5-7.5s-3.364-7.5-7.5-7.5s-7.5,3.364-7.5,7.5S35.864,67.5,40,67.5z M40,57.5  c1.378,0,2.5,1.121,2.5,2.5s-1.122,2.5-2.5,2.5s-2.5-1.121-2.5-2.5S38.622,57.5,40,57.5z"/><path d="M30.732,79.268C31.22,79.756,31.86,80,32.5,80s1.28-0.244,1.768-0.732c0.977-0.977,0.977-2.559,0-3.535l-10-10  c-0.976-0.977-2.56-0.977-3.535,0c-0.977,0.977-0.977,2.559,0,3.535L30.732,79.268z"/><path d="M75,87.5h-7.5c-1.381,0-2.5,1.119-2.5,2.5s1.119,2.5,2.5,2.5H75c1.381,0,2.5-1.119,2.5-2.5S76.381,87.5,75,87.5z"/><path d="M92.5,87.5H85c0-1.381-1.119-2.5-2.5-2.5S80,86.119,80,87.5v5c0,1.381,1.119,2.5,2.5,2.5s2.5-1.119,2.5-2.5h7.5  c1.381,0,2.5-1.119,2.5-2.5S93.881,87.5,92.5,87.5z"/><path d="M92.5,77.5h-10c-1.381,0-2.5,1.119-2.5,2.5s1.119,2.5,2.5,2.5h10c1.381,0,2.5-1.119,2.5-2.5S93.881,77.5,92.5,77.5z"/><path d="M77.5,77.5c0-1.381-1.119-2.5-2.5-2.5s-2.5,1.119-2.5,2.5h-5c-1.381,0-2.5,1.119-2.5,2.5s1.119,2.5,2.5,2.5h5  c0,1.381,1.119,2.5,2.5,2.5s2.5-1.119,2.5-2.5V77.5z"/><path d="M82.5,70c0-1.381-1.119-2.5-2.5-2.5H67.5c-1.381,0-2.5,1.119-2.5,2.5s1.119,2.5,2.5,2.5H80C81.381,72.5,82.5,71.381,82.5,70  z"/><path d="M92.5,67.5H90c0-1.381-1.119-2.5-2.5-2.5S85,66.119,85,67.5v5c0,1.381,1.119,2.5,2.5,2.5s2.5-1.119,2.5-2.5h2.5  c1.381,0,2.5-1.119,2.5-2.5S93.881,67.5,92.5,67.5z"/><text x="0" y="115" fill="#000000" font-size="5px" font-weight="bold" font-family="'Helvetica Neue', Helvetica, Arial-Unicode, Arial, Sans-serif">Created by Arthur Shlain</text><text x="0" y="120" fill="#000000" font-size="5px" font-weight="bold" font-family="'Helvetica Neue', Helvetica, Arial-Unicode, Arial, Sans-serif">from the Noun Project</text></svg>