<svg xmlns="http://www.w3.org/2000/svg" width="70" height="70" viewBox="0 0 70 70" style="width: 100%; height: 100%;">
  <desc>Made with illustrio</desc>
  
  <g class="content">
    <circle cx="50%" cy="50%" r="27px" class="main-fill"></circle><g class="base">
      <g fill="none" fill-rule="evenodd" stroke="none" class="secondary-fill">
      </g>
      <g fill="none" transform="translate(19.09 21)" stroke="none" class="secondary-fill">
        <path d="M29.9090909 25.4545455L17.1818182 25.4545455C16.8299091 25.4545455 16.5454545 25.739 16.5454545 26.0909091 16.5454545 26.4421818 16.2597273 26.7272727 15.9090909 26.7272727 15.5584545 26.7272727 15.2727273 26.4421818 15.2727273 26.0909091 15.2727273 25.739 14.9876364 25.4545455 14.6363636 25.4545455L1.90909091 25.4545455C1.55781818 25.4545455 1.27272727 25.739 1.27272727 26.0909091 1.27272727 26.4428182 1.55781818 26.7272727 1.90909091 26.7272727L14.1088182 26.7272727C14.3716364 27.468 15.0792727 28 15.9090909 28 16.7389091 28 17.4465455 27.468 17.7093636 26.7272727L29.9090909 26.7272727C30.261 26.7272727 30.5454545 26.4428182 30.5454545 26.0909091 30.5454545 25.739 30.261 25.4545455 29.9090909 25.4545455L29.9090909 25.4545455zM15.2727273 0L.636363636 0C.285090909 0 0 .285090909 0 .636363636L0 23.5454545C0 23.8973636.285090909 24.1818182.636363636 24.1818182L15.2727273 24.1818182 15.2727273 0 15.2727273 0zM12.0909091 19.0909091L4.45454545 19.0909091C4.10327273 19.0909091 3.81818182 18.8064545 3.81818182 18.4545455 3.81818182 18.1026364 4.10327273 17.8181818 4.45454545 17.8181818L12.0909091 17.8181818C12.4421818 17.8181818 12.7272727 18.1026364 12.7272727 18.4545455 12.7272727 18.8064545 12.4421818 19.0909091 12.0909091 19.0909091L12.0909091 19.0909091zM12.0909091 16.5454545L4.45454545 16.5454545C4.10327273 16.5454545 3.81818182 16.261 3.81818182 15.9090909 3.81818182 15.5571818 4.10327273 15.2727273 4.45454545 15.2727273L12.0909091 15.2727273C12.4421818 15.2727273 12.7272727 15.5571818 12.7272727 15.9090909 12.7272727 16.261 12.4421818 16.5454545 12.0909091 16.5454545L12.0909091 16.5454545zM12.0909091 14L4.45454545 14C4.10327273 14 3.81818182 13.7149091 3.81818182 13.3636364 3.81818182 13.0123636 4.10327273 12.7272727 4.45454545 12.7272727L12.0909091 12.7272727C12.4421818 12.7272727 12.7272727 13.0123636 12.7272727 13.3636364 12.7272727 13.7149091 12.4421818 14 12.0909091 14L12.0909091 14zM12.0909091 11.4545455L4.45454545 11.4545455C4.10327273 11.4545455 3.81818182 11.1694545 3.81818182 10.8181818 3.81818182 10.4669091 4.10327273 10.1818182 4.45454545 10.1818182L12.0909091 10.1818182C12.4421818 10.1818182 12.7272727 10.4669091 12.7272727 10.8181818 12.7272727 11.1694545 12.4421818 11.4545455 12.0909091 11.4545455L12.0909091 11.4545455zM12.0909091 8.90909091L4.45454545 8.90909091C4.10327273 8.90909091 3.81818182 8.624 3.81818182 8.27272727 3.81818182 7.92145455 4.10327273 7.63636364 4.45454545 7.63636364L12.0909091 7.63636364C12.4421818 7.63636364 12.7272727 7.92145455 12.7272727 8.27272727 12.7272727 8.624 12.4421818 8.90909091 12.0909091 8.90909091L12.0909091 8.90909091zM12.0909091 6.36363636L4.45454545 6.36363636C4.10327273 6.36363636 3.81818182 6.07854545 3.81818182 5.72727273 3.81818182 5.376 4.10327273 5.09090909 4.45454545 5.09090909L12.0909091 5.09090909C12.4421818 5.09090909 12.7272727 5.376 12.7272727 5.72727273 12.7272727 6.07854545 12.4421818 6.36363636 12.0909091 6.36363636L12.0909091 6.36363636zM31.1818182 0L16.5454545 0 16.5454545 24.1818182 31.1818182 24.1818182C31.5337273 24.1818182 31.8181818 23.8973636 31.8181818 23.5454545L31.8181818.636363636C31.8181818.285090909 31.5337273 0 31.1818182 0L31.1818182 0zM24.8181818 19.0909091L19.7272727 19.0909091C19.3753636 19.0909091 19.0909091 18.8064545 19.0909091 18.4545455 19.0909091 18.1026364 19.3753636 17.8181818 19.7272727 17.8181818L24.8181818 17.8181818C25.1700909 17.8181818 25.4545455 18.1026364 25.4545455 18.4545455 25.4545455 18.8064545 25.1700909 19.0909091 24.8181818 19.0909091L24.8181818 19.0909091zM27.3636364 16.5454545L19.7272727 16.5454545C19.3753636 16.5454545 19.0909091 16.261 19.0909091 15.9090909 19.0909091 15.5571818 19.3753636 15.2727273 19.7272727 15.2727273L27.3636364 15.2727273C27.7155455 15.2727273 28 15.5571818 28 15.9090909 28 16.261 27.7155455 16.5454545 27.3636364 16.5454545L27.3636364 16.5454545zM27.3636364 14L19.7272727 14C19.3753636 14 19.0909091 13.7149091 19.0909091 13.3636364 19.0909091 13.0123636 19.3753636 12.7272727 19.7272727 12.7272727L27.3636364 12.7272727C27.7155455 12.7272727 28 13.0123636 28 13.3636364 28 13.7149091 27.7155455 14 27.3636364 14L27.3636364 14zM27.3636364 11.4545455L19.7272727 11.4545455C19.3753636 11.4545455 19.0909091 11.1694545 19.0909091 10.8181818 19.0909091 10.4669091 19.3753636 10.1818182 19.7272727 10.1818182L27.3636364 10.1818182C27.7155455 10.1818182 28 10.4669091 28 10.8181818 28 11.1694545 27.7155455 11.4545455 27.3636364 11.4545455L27.3636364 11.4545455zM27.3636364 8.90909091L19.7272727 8.90909091C19.3753636 8.90909091 19.0909091 8.624 19.0909091 8.27272727 19.0909091 7.92145455 19.3753636 7.63636364 19.7272727 7.63636364L27.3636364 7.63636364C27.7155455 7.63636364 28 7.92145455 28 8.27272727 28 8.624 27.7155455 8.90909091 27.3636364 8.90909091L27.3636364 8.90909091zM27.3636364 6.36363636L19.7272727 6.36363636C19.3753636 6.36363636 19.0909091 6.07854545 19.0909091 5.72727273 19.0909091 5.376 19.3753636 5.09090909 19.7272727 5.09090909L27.3636364 5.09090909C27.7155455 5.09090909 28 5.376 28 5.72727273 28 6.07854545 27.7155455 6.36363636 27.3636364 6.36363636L27.3636364 6.36363636z" fill="none" stroke="none" class="secondary-fill"></path>
      </g>
    </g>
  </g>
  <style>
    .main-fill {fill: #F5D674;}
    .secondary-fill {fill: #333;}
  </style>
</svg>