<svg xmlns="http://www.w3.org/2000/svg" width="70" height="70" viewBox="0 0 70 70" style="width: 100%; height: 100%;">
  <desc>Made with illustrio</desc>
  <g class="content">
    <circle cx="50%" cy="50%" r="27px" class="main-fill"></circle>
    <g class="base">
      <g fill="none" fill-rule="evenodd" stroke="none" class="secondary-fill">
        <path fill="none" d="M1.23529412,0.149132941 C0.550941794,0.149132941 0,0.700074735 0,1.38442706 L0,23.6197212 C0,24.3040737 0.550941794,24.8550153 1.23529412,24.8550153 L5.35294118,24.8550153 L5.35294118,24.4432506 C5.35267311,24.4260948 5.35267311,24.4089358 5.35294118,24.39178 C5.38946347,22.8883035 6.33501153,21.7538094 7.64338235,21.2520741 C7.64767155,21.2520574 7.6519608,21.2520574 7.65625,21.2520741 L13.2922794,19.14178 L14.0128676,11.92303 C14.170814,10.3361588 15.4870075,8.79619176 17.2941176,8.79619176 C19.0924621,8.79619176 20.4896683,10.3117247 20.5882353,11.9873682 L21.1930147,22.3458241 C21.7474406,21.8218124 22.7069302,21.1491329 23.8823529,21.1491329 C25.9283076,21.1491329 27.5811076,22.8323653 27.5882353,24.8421476 C27.5882505,24.8462653 27.5882353,24.8504859 27.5882353,24.8550153 L33.3529412,24.8550153 C34.0372937,24.8550153 34.5882353,24.3040737 34.5882353,23.6197212 L34.5882353,1.38442706 C34.5882353,0.700074735 34.0372937,0.149132941 33.3529412,0.149132941 L1.23529412,0.149132941 Z M17.2941176,2.25942706 C22.9699066,2.25942706 27.5882353,6.87523118 27.5882353,12.5535447 C27.5882353,15.4474435 26.4174544,18.1753888 24.4613971,20.0811182 C24.2535964,20.2948396 23.9465319,20.3795979 23.6585217,20.302734 C23.3705116,20.22587 23.1465122,19.9993818 23.0728353,19.7105399 C22.9991584,19.421698 23.0873044,19.1155888 23.3033088,18.9101624 C24.9298202,17.3254859 25.9411765,14.9986612 25.9411765,12.5535447 C25.9411765,7.76484882 22.0792522,3.90648588 17.2941176,3.90648588 C12.5089835,3.90648588 8.64705882,7.76484882 8.64705882,12.5535447 C8.64705882,14.4547571 9.18758524,16.3888282 10.1525735,17.7906771 C10.3203701,18.0343269 10.3454349,18.3489871 10.2183263,18.6161282 C10.0912176,18.8832693 9.83124627,19.0623061 9.53634098,19.0857973 C9.24143568,19.1092885 8.95639956,18.9736652 8.78860294,18.7300153 C7.59035735,16.9893212 7,14.7572641 7,12.5535447 C7,6.87523118 11.6183291,2.25942706 17.2941176,2.25942706 Z M17.2941176,5.50207412 C21.1514483,5.50207412 24.2941176,8.65141941 24.2941176,12.5149418 C24.2941176,13.4487829 24.1903344,14.3945735 23.8180147,15.2814859 C23.7181825,15.5711473 23.4658139,15.7814526 23.1628981,15.8274115 C22.8599823,15.8733705 22.5565913,15.747386 22.3753337,15.5003721 C22.1940761,15.2533581 22.1649139,14.926146 22.2996324,14.6509712 C22.5478239,14.0597471 22.6470588,13.3206335 22.6470588,12.5149418 C22.6470588,9.53937353 20.259127,7.14913294 17.2941176,7.14913294 C14.3291087,7.14913294 11.9411765,9.53937353 11.9411765,12.5149418 C11.9411765,13.3088076 12.0452846,14.0647253 12.2886029,14.6509712 C12.4233214,14.926146 12.3941592,15.2533581 12.2129016,15.5003721 C12.031644,15.747386 11.728253,15.8733705 11.4253372,15.8274115 C11.1224214,15.7814526 10.8700528,15.5711473 10.7702206,15.2814859 C10.4047564,14.4009435 10.2941176,13.4455465 10.2941176,12.5149418 C10.2941176,8.65141941 13.4367874,5.50207412 17.2941176,5.50207412 Z M17.2941176,10.4432506 C16.3816471,10.4432506 15.7369985,11.1866959 15.6470588,12.0903094 L14.8235294,20.3256035 L8.23529412,22.7961918 C7.54647476,23.0603417 7.01706353,23.7408455 7,24.4432506 L7,31.0314859 C7,32.3943612 9.05882353,32.6673686 9.05882353,34.7373682 L18.9411765,34.7373682 L25.5294118,26.5020741 C25.9446921,25.9829735 25.9411765,24.8550153 25.9411765,24.8550153 C25.9411765,23.7404424 25.0266413,22.7961918 23.8823529,22.7961918 C23.1127581,22.7961918 22.7238834,23.1311319 22.2352941,23.6197212 L19.7647059,26.0903094 L18.9411765,12.0903094 C18.8875944,11.1794134 18.2065882,10.4432506 17.2941176,10.4432506 Z" transform="translate(17.706 17.557)" stroke="none" class="secondary-fill"></path>
      </g>
    </g>
  </g>
  <style>
    .main-fill {fill: #F5D674;}
    .secondary-fill {fill: #333;}
  </style>
</svg>